<svg width="17" height="17" viewBox="0 0 17 17" fill="none" xmlns="http://www.w3.org/2000/svg">
<g clip-path="url(#clip0_113_537)">
<path fill-rule="evenodd" clip-rule="evenodd" d="M5.20182 0.978176C6.05491 0.938903 6.32691 0.930176 8.5 0.930176C10.6731 0.930176 10.9451 0.93963 11.7975 0.978176C12.6498 1.01672 13.2316 1.15272 13.7407 1.34981C14.2738 1.55127 14.7575 1.86618 15.1575 2.27345C15.5647 2.67272 15.8789 3.15563 16.0796 3.68945C16.2775 4.19854 16.4127 4.78036 16.452 5.63127C16.4913 6.48581 16.5 6.75781 16.5 8.93018C16.5 11.1033 16.4905 11.3753 16.452 12.2284C16.4135 13.0793 16.2775 13.6611 16.0796 14.1702C15.8789 14.7041 15.5642 15.1878 15.1575 15.5876C14.7575 15.9949 14.2738 16.3091 13.7407 16.5098C13.2316 16.7076 12.6498 16.8429 11.7989 16.8822C10.9451 16.9214 10.6731 16.9302 8.5 16.9302C6.32691 16.9302 6.05491 16.9207 5.20182 16.8822C4.35091 16.8436 3.76909 16.7076 3.26 16.5098C2.72612 16.3091 2.24241 15.9944 1.84255 15.5876C1.43555 15.1881 1.12059 14.7046 0.919636 14.1709C0.722545 13.6618 0.587273 13.08 0.548 12.2291C0.508727 11.3745 0.5 11.1025 0.5 8.93018C0.5 6.75708 0.509455 6.48509 0.548 5.63272C0.586545 4.78036 0.722545 4.19854 0.919636 3.68945C1.12089 3.15569 1.43609 2.67222 1.84327 2.27272C2.24257 1.86581 2.7258 1.55086 3.25927 1.34981C3.76836 1.15272 4.35018 1.01745 5.20109 0.978176H5.20182ZM11.7327 2.41818C10.8891 2.37963 10.636 2.37163 8.5 2.37163C6.364 2.37163 6.11091 2.37963 5.26727 2.41818C4.48691 2.45381 4.06364 2.58399 3.78145 2.69381C3.40836 2.83927 3.14145 3.01163 2.86145 3.29163C2.59603 3.54985 2.39177 3.8642 2.26364 4.21163C2.15382 4.49381 2.02364 4.91708 1.988 5.69745C1.94945 6.54108 1.94145 6.79418 1.94145 8.93018C1.94145 11.0662 1.94945 11.3193 1.988 12.1629C2.02364 12.9433 2.15382 13.3665 2.26364 13.6487C2.39164 13.9956 2.596 14.3105 2.86145 14.5687C3.11964 14.8342 3.43455 15.0385 3.78145 15.1665C4.06364 15.2764 4.48691 15.4065 5.26727 15.4422C6.11091 15.4807 6.36327 15.4887 8.5 15.4887C10.6367 15.4887 10.8891 15.4807 11.7327 15.4422C12.5131 15.4065 12.9364 15.2764 13.2185 15.1665C13.5916 15.0211 13.8585 14.8487 14.1385 14.5687C14.404 14.3105 14.6084 13.9956 14.7364 13.6487C14.8462 13.3665 14.9764 12.9433 15.012 12.1629C15.0505 11.3193 15.0585 11.0662 15.0585 8.93018C15.0585 6.79418 15.0505 6.54108 15.012 5.69745C14.9764 4.91708 14.8462 4.49381 14.7364 4.21163C14.5909 3.83854 14.4185 3.57163 14.1385 3.29163C13.8803 3.02623 13.566 2.82197 13.2185 2.69381C12.9364 2.58399 12.5131 2.45381 11.7327 2.41818ZM7.47818 11.3964C8.04884 11.6339 8.68427 11.666 9.27595 11.4871C9.86762 11.3082 10.3788 10.9294 10.7223 10.4154C11.0657 9.9015 11.22 9.28426 11.1589 8.66916C11.0978 8.05406 10.8251 7.47925 10.3873 7.0429C10.1082 6.76398 9.7707 6.5504 9.39915 6.41756C9.0276 6.28471 8.63122 6.23589 8.23854 6.27462C7.84586 6.31335 7.46666 6.43867 7.12822 6.64154C6.78979 6.84442 6.50054 7.11981 6.28131 7.44789C6.06208 7.77596 5.91832 8.14857 5.86037 8.53887C5.80243 8.92918 5.83175 9.32748 5.94621 9.7051C6.06067 10.0827 6.25744 10.4303 6.52234 10.7227C6.78724 11.0151 7.11369 11.2452 7.47818 11.3964ZM5.59236 6.02254C5.9742 5.6407 6.42751 5.33781 6.9264 5.13117C7.42529 4.92452 7.96 4.81816 8.5 4.81816C9.04 4.81816 9.57471 4.92452 10.0736 5.13117C10.5725 5.33781 11.0258 5.6407 11.4076 6.02254C11.7895 6.40438 12.0924 6.85768 12.299 7.35657C12.5057 7.85547 12.612 8.39018 12.612 8.93018C12.612 9.47017 12.5057 10.0049 12.299 10.5038C12.0924 11.0027 11.7895 11.456 11.4076 11.8378C10.6365 12.609 9.59058 13.0422 8.5 13.0422C7.40942 13.0422 6.36352 12.609 5.59236 11.8378C4.82121 11.0667 4.38798 10.0208 4.38798 8.93018C4.38798 7.8396 4.82121 6.79369 5.59236 6.02254ZM13.524 5.43054C13.6186 5.34128 13.6944 5.23394 13.7468 5.11488C13.7992 4.99582 13.8271 4.86746 13.829 4.7374C13.8309 4.60733 13.8067 4.47821 13.7578 4.35767C13.7089 4.23714 13.6363 4.12764 13.5443 4.03566C13.4524 3.94368 13.3429 3.87109 13.2223 3.82219C13.1018 3.77329 12.9727 3.74907 12.8426 3.75096C12.7125 3.75286 12.5842 3.78083 12.4651 3.83323C12.3461 3.88562 12.2387 3.96137 12.1495 4.05599C11.9759 4.24002 11.8808 4.48445 11.8845 4.7374C11.8882 4.99035 11.9903 5.23191 12.1692 5.41079C12.3481 5.58967 12.5896 5.6918 12.8426 5.69548C13.0955 5.69917 13.34 5.60413 13.524 5.43054Z" fill="white"/>
</g>
<defs>
<clipPath id="clip0_113_537">
<rect width="16" height="16" fill="white" transform="translate(0.5 0.930176)"/>
</clipPath>
</defs>
</svg>
