<svg width="25" height="25" viewBox="0 0 25 25" fill="none" xmlns="http://www.w3.org/2000/svg">
<path d="M12.6051 12.0446C9.46073 12.0446 6.91174 9.49561 6.91174 6.35128C6.91174 3.20695 9.46073 0.657959 12.6051 0.657959C15.7494 0.657959 18.2984 3.20695 18.2984 6.35128C18.2984 7.86124 17.6986 9.30936 16.6308 10.3771C15.5631 11.4448 14.115 12.0446 12.6051 12.0446ZM12.6051 1.92314C10.1595 1.92314 8.17693 3.90569 8.17693 6.35128C8.17693 8.79687 10.1595 10.7794 12.6051 10.7794C15.0507 10.7794 17.0332 8.79687 17.0332 6.35128C17.0416 5.17139 16.5788 4.03694 15.7475 3.19965C14.9161 2.36236 13.785 1.89151 12.6051 1.89151V1.92314Z" fill="#212A2F"/>
<path d="M20.367 24.3738H4.84319C4.33028 24.3783 3.83907 24.1672 3.48945 23.7918C3.19611 23.4756 3.04721 23.0518 3.07826 22.6215C3.59066 17.0294 7.68352 12.8101 12.6051 12.8101C17.5266 12.8101 21.6195 16.9978 22.1319 22.6215C22.172 23.0624 22.0225 23.4996 21.7207 23.8235C21.3656 24.1871 20.8751 24.3865 20.367 24.3738ZM12.6051 14.0436C8.34142 14.0436 4.78626 17.7696 4.33712 22.7038C4.33162 22.7909 4.36389 22.8762 4.42568 22.9378C4.53496 23.0505 4.6863 23.1124 4.84319 23.1086H20.367C20.5239 23.1124 20.6752 23.0505 20.7845 22.9378C20.8463 22.8762 20.8785 22.7909 20.873 22.7038C20.4239 17.7696 16.8687 14.0436 12.6051 14.0436Z" fill="#212A2F"/>
</svg>
