<svg width="20" height="18" viewBox="0 0 20 18" fill="none" xmlns="http://www.w3.org/2000/svg">
<path id="Vector" d="M9.5696 2.93546C9.65959 3.08757 9.82319 3.18087 9.99992 3.18088C10.1767 3.18088 10.3403 3.08759 10.4303 2.93548C11.2982 1.46847 12.8425 0.5 14.599 0.5C17.2879 0.5 19.5 2.7702 19.5 5.61134C19.5 7.15414 18.8424 8.53018 17.8103 9.46563C17.8018 9.47327 17.7937 9.4812 17.7858 9.48939L10.1325 17.4412C10.094 17.4812 10.0459 17.5 9.99994 17.5C9.95395 17.5 9.90586 17.4812 9.86733 17.4412L2.21409 9.48939C2.2062 9.4812 2.19804 9.47328 2.18961 9.46564C1.15749 8.5302 0.5 7.15415 0.5 5.61134C0.5 2.77012 2.71149 0.5 5.40032 0.5C7.15683 0.5 8.70181 1.46854 9.5696 2.93546Z" stroke="#0A1E32" stroke-linecap="round" stroke-linejoin="round"/>
</svg>
