<svg width="161" height="40" fill="none" xmlns="http://www.w3.org/2000/svg"><g clip-path="url(#a)" fill="#0A1E32"><path d="M39.527 23.982v15.484h7.067V23.982h5.22v15.484h6.972l1.782-6.56h-1.782V16.955H39.527l-1.75 7.027h1.75Zm24.989.031v15.453h13.72l1.655-6.56h-8.372v-1.68h6.493l1.37-5.534h-7.863v-1.679h6.493l1.879-7.65h-6.526v.623h-8.85l-1.75 7.027h1.75Zm19.035.03v15.423h6.908v-7.773l4.01 7.773h8.691l-7.035-11.815 6.048-10.603h-8.085l-3.63 8.084v-8.084h-6.907l-1.878 6.996h1.878Zm33.902-7.68c-5.698 0-12.166 4.043-12.097 11.925 0 7.51 5.921 11.525 12.097 11.712 6.684.156 12.16-4.794 12.223-11.712 0-7.882-6.525-11.924-12.223-11.924Zm0 7.028c2.578 0 5.029 2.047 5.029 4.897s-2.451 4.928-5.029 4.928c-2.61 0-5.03-2.078-5.03-4.928s2.42-4.897 5.03-4.897Zm25.879 9.67v6.405h7.004v-1.399C157.052 37.88 161 32.75 161 27.495c0-4.944-3.725-9.42-9.359-10.447l-1.305 5.503v-6.063h-7.004v.56c-6.684.373-10.695 5.41-10.664 10.603 0 4.912 3.661 9.576 9.487 10.416l1.177-5.006Zm10.664-5.348c0 1.648-1.337 3.234-3.66 3.234v-6.468c2.196 0 3.66 1.43 3.66 3.234Zm-10.664-3.234v6.592c-2.355 0-3.692-1.71-3.692-3.358 0-1.804 1.464-3.39 3.692-3.234Z"/><path fill-rule="evenodd" clip-rule="evenodd" d="M11.15 0c4.115 6.52 9.57 15.684 11.155 18.35.507.854.768 2.057-.039 3.688-2.008 4.06-5.594 8.973-6.288 10.982-.325.595 1.954.54 2.09.318 1.358-2.212 2.49-5.023 4.737-6.727 2.798-2.12 5.186-.134 8.266 3.408-7.174-.215-6.016 9.077-11.006 9.149-7.495.107-12.356.011-20.065-.01 1.767-3.28 5.027-8.571 6.451-11.48.324-.663.448-1.198.449-1.575 0-.374-.132-1.068-.389-1.544-1.396-2.589-3.698-5.913-5.65-9.328-.78-1.364.56-5.208 1.531-5.361 2.506 4.006 5.992 9.631 8.102 12.93.388.605.467 1.211.573 1.73.127.62-.076 1.713-.39 2.278-1.905 3.415-5.516 8.834-5.303 9.542.076.25.993.371 2.552.35 2.451-.033 7.356.116 10.337.04 1.354-.035 1.419.04 2.391-.348 2.276-.906 2.653-4.458 4.878-6.403.293-.256 1.331-.823 1.236-1.384-.095-.56-1.005-1.08-1.708-.949-.945.175-1.34.384-1.799.917-.942 1.096-2.706 3.793-3.858 5.843-2.108.037-4.26.093-6.535.063 1.48-3.057 3.559-6.328 5.225-9.433a6.24 6.24 0 0 0 .676-1.918c.339-1.966-1.782-4.294-3.26-6.74-2.759-4.564-4.482-7.227-5.973-9.798C8.572 4.927 9.449 1.5 11.152 0Z"/><path fill-rule="evenodd" clip-rule="evenodd" d="M6.615 5.243c2.964 4.835 7.305 11.87 9.467 15.25.5.783.66 1.369.688 1.999.02.454.026 1.094-.404 1.933-1.28 2.5-4.009 6.756-5.86 9.916-.79.039-1.142.002-1.908-.01 1.402-2.581 3.29-5.718 4.4-7.893.255-.503.4-.99.343-1.45-.1-.808-.288-1.27-.684-1.942-2.256-3.828-4.685-7.56-7.475-12.23-.868-1.452.138-4.423 1.433-5.573Z"/></g><defs><clipPath id="a"><path fill="#fff" d="M0 0h161v40H0z"/></clipPath></defs></svg>